# xmcd
#
# Track frame offsets: 
#        150
#        16859
#        40213
#        61265
#        78270
#        96715
#        117182
#        137269
#        154684
#        173954
#        198339
#        214197
#        228753
#        248907
#        266265
#        299524
#        316505
#        333455
#
# Disc length: 4648 seconds
#
# Revision: 0
# Processed by: cddbd v1.5.2PL0 Copyright (c) Steve Scherf et al.
# Submitted via: ExactAudioCopyFreeDBPlugin 1.0
#
DISCID=f0122612
DTITLE=Blu and Exile - Below The Heavens
DYEAR=2007
DGENRE=Hip-Hop
TTITLE0=My World Is...
TTITLE1=The Narrow Path
TTITLE2=So(ul) Amazin' (Steel Blazin')
TTITLE3=Juicen' Dranks (feat. Ta'Raach)
TTITLE4=In Remembrance of Me
TTITLE5=Blu Colla Workers
TTITLE6=Dancing in the Rain
TTITLE7=First Things First (feat. Miguel)
TTITLE8=No Greater Love
TTITLE9=Show Me the Good Life (feat. Aloe Blacc)
TTITLE10=Simply Amazin'
TTITLE11=Cold Hearted (feat. Miguel)
TTITLE12=The World Is... (Below the Heavens)
TTITLE13=You Are Now in the Clouds With... (The Koochie Monstas) (feat
TTITLE13=Miguel)
TTITLE14=I Am
TTITLE15=Bonus Track One
TTITLE16=Bonus Track Two
TTITLE17=Bonus Track Three
EXTD=
EXTT0=
EXTT1=
EXTT2=
EXTT3=
EXTT4=
EXTT5=
EXTT6=
EXTT7=
EXTT8=
EXTT9=
EXTT10=
EXTT11=
EXTT12=
EXTT13=
EXTT14=
EXTT15=
EXTT16=
EXTT17=
PLAYORDER=
